<svg xmlns="http://www.w3.org/2000/svg" xmlns:xlink="http://www.w3.org/1999/xlink" viewBox="0 0 961 961"><defs><style>.cls-1{fill:#00877e;}.cls-2{fill:none;clip-path:url(#clip-path);}.cls-3{clip-path:url(#clip-path-2);}.cls-4{fill:#fff;}</style><clipPath id="clip-path"><rect class="cls-1" width="961" height="961" rx="201.72" ry="201.72"/></clipPath><clipPath id="clip-path-2"><rect class="cls-2" width="961" height="961" rx="201.72" ry="201.72"/></clipPath></defs><title>Asset 1</title><g id="Layer_2" data-name="Layer 2"><g id="Layer_1-2" data-name="Layer 1"><rect class="cls-1" width="961" height="961" rx="201.72" ry="201.72"/><g class="cls-3"><path d="M887.82,460.69C886.53,546.78,873.1,623.27,844,697c-16,40.51-41.46,72.72-76.24,98.72-50,37.37-105.19,61.89-166.65,72.33-37.06,6.3-74.34,6.05-111.59,2.11-22.78-2.4-45.53-5.2-68.17-8.66-31.14-4.75-60.6-14.91-88.71-29.22-14.8-7.52-30.41-13.47-45-21.28-63.46-33.89-117.56-78.82-159.44-137.7C99.18,632.55,82.25,587,76,537.46,67.72,472,78.16,409.07,102,348.08,126.71,284.73,162.54,228.6,212.42,182c52.73-49.31,115.27-78.3,186.47-89.06C456.66,84.15,514,87.73,571,99.21c46.31,9.32,90.92,23.86,134.28,42.49C781.17,174.3,832.11,230.35,861.16,307c13.05,34.44,20.62,70.15,23.7,106.8C886.37,431.77,887.14,449.79,887.82,460.69Z"/><path class="cls-4" d="M661.38,702.13q-3.69-29.53-7.43-59c-.65-5.13-1.73-9.76-5.19-14.17q-54.19-69.15-108-138.65c-.65-.84-1.21-1.75-1.94-2.81,1.49-1.05,2.72-1.94,4-2.79q49.11-33.27,98.27-66.48c2.41-1.62,3.38-3.25,2.87-6.16-2.21-12.66-4.13-25.37-6.51-38a10,10,0,0,0-4-5.8Q511.12,288.09,388.6,208.12a6.67,6.67,0,0,0-7.31-.58c-12.41,5.76-24.86,11.45-37.43,16.85-3.48,1.49-4.73,3.37-4.83,7.14q-2.58,100-5.42,200-1.94,70.23-3.88,140.47c-1.25,45.57-2.42,91.14-3.77,136.7-.11,3.61,1.18,5.16,4.4,6.37,12.54,4.73,24.94,9.84,37.49,14.52a9.72,9.72,0,0,0,6.64-.17q20.17-8.75,40.09-18.09a5.83,5.83,0,0,0,2.8-4.21c1.54-43.45,3.27-86.91,4.05-130.38.18-10,2.63-16.31,11.71-21.25,12-6.52,23.05-14.66,34.7-22.22,1.15,1.37,2.14,2.51,3.08,3.69q57.93,72.63,115.92,145.2a14.37,14.37,0,0,0,5.89,4.25c20.12,7.56,40.32,14.92,60.48,22.36C661.32,711.78,662.47,710.88,661.38,702.13Zm-126-219.34L515.6,457.4c1.4-1,2.63-1.84,3.9-2.66q26.07-16.83,52.13-33.64c5.15-3.33,5.14-4.43-.07-7.83Q497.31,364.82,423,316.43c-2.79-1.81-3.89-3.68-3.81-7,.25-9.91.09-19.83.09-29.75l1.39-.55L636.81,415.33Zm-4.22-88.68L416.48,468.32c1-49.68,1.9-98.31,2.85-147.81ZM387.24,215.21c1.45.79,2.52,1.28,3.49,1.92Q510,295,629.28,373.05a8.17,8.17,0,0,1,3.14,4.84c1.78,9.46,3.23,19,4.76,28.51a24.24,24.24,0,0,1,0,3.25c-1.69-1-3-1.71-4.26-2.5L421.49,274.22c-.95-.59-1.86-1.25-2.85-1.76-2.89-1.49-4.58-.63-4.91,2.53-.14,1.38,0,2.79-.05,4.19q-1.41,95.4-2.87,190.79c0,1.33-.62,3.21-1.6,3.86-9.26,6.19-18.67,12.18-29,18.86C382.55,399.8,384.88,307.84,387.24,215.21ZM331.79,702.75q3.27-118.65,6.56-237.29,2.28-83,4.51-166c.59-21.66,1.22-43.32,1.72-65,.06-2.59.87-3.93,3.32-5,11.26-4.81,22.42-9.86,34.09-15,0,2.49,0,4.38,0,6.27q-2.37,89.1-4.77,178.18-1.27,48-2.47,96c0,1.74.94,3.5,1.44,5.25,1.74-.55,3.72-.75,5.21-1.72Q457.2,449,532.89,399.31c2.9-1.9,4.85-2,7.72,0,8.68,6.06,17.6,11.78,26.79,17.87-3.35,2.22-6.25,4.16-9.16,6.06q-23,15-46,30c-4.21,2.75-4.32,3.47-1.19,7.52L641.64,629.62c.91,1.17,1.77,2.37,3.05,4.1-11.05,2.19-21.39,4.35-31.78,6.16-1.1.2-2.89-1.3-3.8-2.46Q584.22,605.79,559.5,574q-37.69-48.49-75.2-97.14c-2.13-2.76-4-2.83-6.69-1.09Q426.7,509,375.8,542.18a7.09,7.09,0,0,0-2.64,5q-2.4,69.16-4.41,138.33c-.11,3.84-1.24,5.92-4.91,7.45-10.54,4.4-20.9,9.24-32,14.24C331.79,705.33,331.75,704,331.79,702.75Zm41.56,21.7a5.24,5.24,0,0,1-3.58,0c-10.81-4.1-21.57-8.32-32.72-12.64a9.48,9.48,0,0,1,1.73-1.34c10-4.51,20.08-9,30.16-13.44a5.47,5.47,0,0,1,3.55-.54c11.33,4.15,22.6,8.46,35.05,13.16C395.33,715,384.37,719.77,373.35,724.45Zm39.46-37.17c-.17,5.82,0,11.65,0,18-2-.58-3-.82-4-1.21-10.3-4-20.57-8-30.92-11.89-2.54-.94-3.32-2.21-3.24-4.87q1.62-50.31,3-100.62.5-16.56,1.06-33.12c0-1.38.15-2.75.26-4.66l21.79,8.41c4.18,1.61,8.3,3.36,12.53,4.8,2.52.85,3.37,2.16,3.28,4.87Q414.57,627.13,412.81,687.28Zm177.31-9.78c-1.26-1.51-2.2-2.61-3.11-3.75Q529.83,601.89,472.72,530c-2.7-3.41-4.8-3.6-8.31-1.25-13.81,9.26-27.82,18.22-41.68,27.42-2.3,1.53-4.22,2-6.92.87-10.73-4.33-21.57-8.4-33.27-12.91l97.58-63.18c1.08,1.36,2,2.54,2.95,3.73q59.84,77,119.75,153.89c3,3.89,3.42,6.67,1.08,11C599.05,658.45,594.87,667.75,590.12,677.5Zm52.76,21.41c-15.86-5.7-31.66-11.53-48.1-17.55l15.91-32.28c.8.84,1.41,1.37,1.89,2q16.56,21.85,33.06,43.77c.78,1,.84,2.63,1.24,4C645.54,698.86,644.05,699.33,642.88,698.91Zm9.75-4.53c-12.46-16-24.7-32.18-37.56-48.86l32.55-6.65,6.61,54.66Z"/><path d="M887.82,460.69C886.53,546.78,873.1,623.27,844,697c-16,40.51-41.46,72.72-76.24,98.72-50,37.37-105.19,61.89-166.65,72.33-37.06,6.3-74.34,6.05-111.59,2.11-22.78-2.4-45.53-5.2-68.17-8.66-31.14-4.75-60.6-14.91-88.71-29.22-14.8-7.52-30.41-13.47-45-21.28-63.46-33.89-117.56-78.82-159.44-137.7C99.18,632.55,82.25,587,76,537.46,67.72,472,78.16,409.07,102,348.08,126.71,284.73,162.54,228.6,212.42,182c52.73-49.31,115.27-78.3,186.47-89.06C456.66,84.15,514,87.73,571,99.21c46.31,9.32,90.92,23.86,134.28,42.49C781.17,174.3,832.11,230.35,861.16,307c13.05,34.44,20.62,70.15,23.7,106.8C886.37,431.77,887.14,449.79,887.82,460.69Z"/><path class="cls-4" d="M661.38,702.13q-3.69-29.53-7.43-59c-.65-5.13-1.73-9.76-5.19-14.17q-54.19-69.15-108-138.65c-.65-.84-1.21-1.75-1.94-2.81,1.49-1.05,2.72-1.94,4-2.79q49.11-33.27,98.27-66.48c2.41-1.62,3.38-3.25,2.87-6.16-2.21-12.66-4.13-25.37-6.51-38a10,10,0,0,0-4-5.8Q511.12,288.09,388.6,208.12a6.67,6.67,0,0,0-7.31-.58c-12.41,5.76-24.86,11.45-37.43,16.85-3.48,1.49-4.73,3.37-4.83,7.14q-2.58,100-5.42,200-1.94,70.23-3.88,140.47c-1.25,45.57-2.42,91.14-3.77,136.7-.11,3.61,1.18,5.16,4.4,6.37,12.54,4.73,24.94,9.84,37.49,14.52a9.72,9.72,0,0,0,6.64-.17q20.17-8.75,40.09-18.09a5.83,5.83,0,0,0,2.8-4.21c1.54-43.45,3.27-86.91,4.05-130.38.18-10,2.63-16.31,11.71-21.25,12-6.52,23.05-14.66,34.7-22.22,1.15,1.37,2.14,2.51,3.08,3.69q57.93,72.63,115.92,145.2a14.37,14.37,0,0,0,5.89,4.25c20.12,7.56,40.32,14.92,60.48,22.36C661.32,711.78,662.47,710.88,661.38,702.13Zm-126-219.34L515.6,457.4c1.4-1,2.63-1.84,3.9-2.66q26.07-16.83,52.13-33.64c5.15-3.33,5.14-4.43-.07-7.83Q497.31,364.82,423,316.43c-2.79-1.81-3.89-3.68-3.81-7,.25-9.91.09-19.83.09-29.75l1.39-.55L636.81,415.33Zm-4.22-88.68L416.48,468.32c1-49.68,1.9-98.31,2.85-147.81ZM387.24,215.21c1.45.79,2.52,1.28,3.49,1.92Q510,295,629.28,373.05a8.17,8.17,0,0,1,3.14,4.84c1.78,9.46,3.23,19,4.76,28.51a24.24,24.24,0,0,1,0,3.25c-1.69-1-3-1.71-4.26-2.5L421.49,274.22c-.95-.59-1.86-1.25-2.85-1.76-2.89-1.49-4.58-.63-4.91,2.53-.14,1.38,0,2.79-.05,4.19q-1.41,95.4-2.87,190.79c0,1.33-.62,3.21-1.6,3.86-9.26,6.19-18.67,12.18-29,18.86C382.55,399.8,384.88,307.84,387.24,215.21ZM331.79,702.75q3.27-118.65,6.56-237.29,2.28-83,4.51-166c.59-21.66,1.22-43.32,1.72-65,.06-2.59.87-3.93,3.32-5,11.26-4.81,22.42-9.86,34.09-15,0,2.49,0,4.38,0,6.27q-2.37,89.1-4.77,178.18-1.27,48-2.47,96c0,1.74.94,3.5,1.44,5.25,1.74-.55,3.72-.75,5.21-1.72Q457.2,449,532.89,399.31c2.9-1.9,4.85-2,7.72,0,8.68,6.06,17.6,11.78,26.79,17.87-3.35,2.22-6.25,4.16-9.16,6.06q-23,15-46,30c-4.21,2.75-4.32,3.47-1.19,7.52L641.64,629.62c.91,1.17,1.77,2.37,3.05,4.1-11.05,2.19-21.39,4.35-31.78,6.16-1.1.2-2.89-1.3-3.8-2.46Q584.22,605.79,559.5,574q-37.69-48.49-75.2-97.14c-2.13-2.76-4-2.83-6.69-1.09Q426.7,509,375.8,542.18a7.09,7.09,0,0,0-2.64,5q-2.4,69.16-4.41,138.33c-.11,3.84-1.24,5.92-4.91,7.45-10.54,4.4-20.9,9.24-32,14.24C331.79,705.33,331.75,704,331.79,702.75Zm41.56,21.7a5.24,5.24,0,0,1-3.58,0c-10.81-4.1-21.57-8.32-32.72-12.64a9.48,9.48,0,0,1,1.73-1.34c10-4.51,20.08-9,30.16-13.44a5.47,5.47,0,0,1,3.55-.54c11.33,4.15,22.6,8.46,35.05,13.16C395.33,715,384.37,719.77,373.35,724.45Zm39.46-37.17c-.17,5.82,0,11.65,0,18-2-.58-3-.82-4-1.21-10.3-4-20.57-8-30.92-11.89-2.54-.94-3.32-2.21-3.24-4.87q1.62-50.31,3-100.62.5-16.56,1.06-33.12c0-1.38.15-2.75.26-4.66l21.79,8.41c4.18,1.61,8.3,3.36,12.53,4.8,2.52.85,3.37,2.16,3.28,4.87Q414.57,627.13,412.81,687.28Zm177.31-9.78c-1.26-1.51-2.2-2.61-3.11-3.75Q529.83,601.89,472.72,530c-2.7-3.41-4.8-3.6-8.31-1.25-13.81,9.26-27.82,18.22-41.68,27.42-2.3,1.53-4.22,2-6.92.87-10.73-4.33-21.57-8.4-33.27-12.91l97.58-63.18c1.08,1.36,2,2.54,2.95,3.73q59.84,77,119.75,153.89c3,3.89,3.42,6.67,1.08,11C599.05,658.45,594.87,667.75,590.12,677.5Zm52.76,21.41c-15.86-5.7-31.66-11.53-48.1-17.55l15.91-32.28c.8.84,1.41,1.37,1.89,2q16.56,21.85,33.06,43.77c.78,1,.84,2.63,1.24,4C645.54,698.86,644.05,699.33,642.88,698.91Zm9.75-4.53c-12.46-16-24.7-32.18-37.56-48.86l32.55-6.65,6.61,54.66Z"/></g></g></g></svg>
